<svg width="69" height="40" viewBox="0 0 69 40" fill="none" xmlns="http://www.w3.org/2000/svg">
<g clip-path="url(#clip0_36_2)">
<path d="M2.08122 1.4972L44.0349 1.58856L46.0577 4.92204L29.0414 37.7374L65.989 37.7899L66.674 38.9188L24.7386 38.8233L22.7076 35.4762L39.6622 2.72959L2.7417 2.59493L2.08122 1.4972Z" fill="#70BED7" stroke="#70BED7" stroke-width="2.33509" stroke-linecap="round"/>
<path d="M25.5556 19.3185L19.1824 31.7423L11.5928 19.2346L4.00311 6.72684L17.9659 6.8108L31.9288 6.89475L25.5556 19.3185Z" fill="#6367BC"/>
<path d="M21.7789 18.303L16.8498 28.0264L10.8782 18.1852L4.90662 8.34407L15.8073 8.4619L26.708 8.57973L21.7789 18.303Z" fill="#6F9CA2"/>
<path d="M42.9599 20.7426L49.3331 8.3188L56.9227 20.8265L64.5124 33.3343L50.5496 33.2503L36.5867 33.1663L42.9599 20.7426Z" fill="#6367BC"/>
<path d="M46.7366 21.7581L51.6657 12.0348L57.6373 21.8759L63.6089 31.7171L52.7082 31.5993L41.8075 31.4814L46.7366 21.7581Z" fill="#6F9CA2"/>
</g>
<defs>
<clipPath id="clip0_36_2">
<rect width="69" height="40" fill="white"/>
</clipPath>
</defs>
</svg>
